<svg width="19" height="16" viewBox="0 0 19 16" fill="none" xmlns="http://www.w3.org/2000/svg">
<path d="M18.794 6.00385C18.5909 5.70975 18.2771 5.50572 17.9531 5.35962C16.8921 4.8615 15.0636 4.8615 14.0026 5.35962C13.6503 5.51853 13.3365 5.75174 13.1243 6.07432C12.2941 7.26194 11.1731 8.43074 9.69622 8.78243C8.73715 8.99624 7.72854 8.75205 6.69691 8.07623L7.65238 5.50412C8.02837 4.492 8.09543 3.5473 7.85186 2.69635C7.16427 0.121753 3.53761 -0.816602 1.48116 0.796765C-0.491238 2.4302 -0.232488 4.89871 0.747994 7.36547C1.16774 8.39035 1.62916 9.438 2.19361 10.4206C2.19361 10.4206 0.81695 14.8418 0.816616 14.8428C0.777128 14.9718 0.788893 15.1153 0.848162 15.2366C0.906837 15.3567 1.01175 15.4546 1.13712 15.5053C1.13831 15.5058 2.2773 15.9599 2.2773 15.9599C2.52039 16.0578 2.80838 15.9722 2.95383 15.75L4.54459 13.3338C5.01723 13.7277 5.51906 14.0544 6.04543 14.3106C7.05809 14.8035 8.19749 15.0529 9.42715 15.0515C13.9623 15.1247 18.0804 11.1324 18.9812 6.83747C19.0382 6.54618 18.9629 6.24848 18.794 6.00385ZM6.60654 5.12878L5.76149 7.40363C5.416 7.1211 5.13491 6.84243 4.8808 6.54542L5.60038 4.59381C5.80097 4.04973 5.71209 3.4487 5.36256 2.9861C5.01303 2.52344 4.45311 2.26549 3.86528 2.29752C3.71575 2.30555 3.57165 2.32918 3.43403 2.36559C3.7411 1.88819 4.27582 1.49366 4.96913 1.24243C5.27568 1.34001 5.56861 1.48283 5.83237 1.67165C6.43965 2.10626 7.34772 3.13337 6.60654 5.12878ZM3.69271 4.86183C3.49293 4.53621 3.14069 4.16413 3.28172 3.75746C3.38968 3.50239 3.70161 3.39339 3.963 3.3892C4.39069 3.37873 4.71097 3.82812 4.55361 4.22089L4.09152 5.47413C3.9646 5.28291 3.83351 5.07994 3.69271 4.86183ZM2.2691 14.7758L2.03121 14.6809L2.97884 11.638C3.17703 11.9098 3.38649 12.1727 3.60939 12.4239C3.64925 12.4689 3.68937 12.5132 3.72982 12.557L2.2691 14.7758ZM9.42593 13.9571C5.0219 13.9629 3.16801 10.3462 1.78084 6.95679C1.0079 4.99717 0.642965 2.91916 2.16555 1.65994C2.38856 1.4891 2.63974 1.35661 2.90733 1.26202C1.51901 2.66614 1.93367 4.5863 3.08391 5.98459C3.10584 6.01246 4.1774 7.48906 4.84706 8.07277C6.21285 9.26214 8.03409 10.2654 9.93712 9.85095C11.1291 9.59129 12.2895 8.81607 13.3948 7.54396C13.5438 7.67777 13.7412 7.80862 14.0026 7.92652C14.9034 8.34647 16.3563 8.41228 17.3696 8.13044C15.871 11.6685 12.8285 13.9535 9.42593 13.9571ZM17.8852 6.64639C17.864 6.69075 17.7494 6.82813 17.4109 6.96511C16.6476 7.28722 15.3082 7.28722 14.5448 6.96511C14.1981 6.82485 14.0861 6.68378 14.0689 6.64307C14.0861 6.60236 14.1981 6.46133 14.5448 6.32103C15.3081 5.99892 16.6476 5.99892 17.4109 6.32103C17.7554 6.46042 17.8681 6.60039 17.8864 6.64216C17.886 6.64355 17.8856 6.64497 17.8852 6.64639Z" fill="white"/>
</svg>
