<svg width="32" height="32" viewBox="0 0 32 32" fill="none" xmlns="http://www.w3.org/2000/svg">
<path d="M26.0404 8.44905H23.4992L21.8795 6.82943C20.8902 5.80247 19.1709 5.63559 17.9998 6.43643C17.1172 4.9613 14.8817 4.9663 13.9985 6.43701C12.8272 5.63555 11.1076 5.80218 10.1179 6.82943L8.49828 8.44905H5.95703C5.61186 8.44905 5.33203 8.72889 5.33203 9.07405V11.5741C5.33203 11.9192 5.61186 12.1991 5.95703 12.1991H6.33203V26.0324C6.33203 26.3776 6.61186 26.6574 6.95703 26.6574H25.0404C25.3855 26.6574 25.6654 26.3776 25.6654 26.0324V12.1991H26.0404C26.3855 12.1991 26.6654 11.9192 26.6654 11.5741V9.07405C26.6654 8.72889 26.3855 8.44905 26.0404 8.44905ZM18.4027 7.7133C19.082 7.00459 20.3163 7.00464 20.9956 7.7133L21.7314 8.44905H17.6669L18.4027 7.7133ZM15.9987 6.57405C16.4645 6.57405 16.8835 6.8773 17.0385 7.30976L15.9987 8.34959L14.9585 7.30943C15.1124 6.87476 15.5251 6.57405 15.9987 6.57405ZM11.0018 7.7133C11.6811 7.00459 12.9154 7.00464 13.5947 7.7133L14.3304 8.44905H10.266L11.0018 7.7133ZM24.4154 25.4074H7.58203V12.1991H24.4154V25.4074ZM25.4154 10.9491H6.58203V9.69905H25.4154V10.9491Z" fill="#B5E5FB"/>
<path d="M10.8232 21.4858C10.9329 21.6858 11.1429 21.8102 11.3711 21.8102H14.0602L15.4715 24.026C15.7058 24.4084 16.2915 24.4083 16.5258 24.026L17.9371 21.8102H20.6262C20.8544 21.8102 21.0644 21.6858 21.1741 21.4858C21.2839 21.2858 21.2759 21.0419 21.1533 20.8494L19.8512 18.8048L21.1533 16.7602C21.2759 16.5678 21.2839 16.3239 21.1741 16.1238C21.0644 15.9238 20.8543 15.7995 20.6262 15.7995H17.9371L16.5258 13.5837C16.2914 13.2012 15.7058 13.2013 15.4715 13.5837L14.0602 15.7995H11.3711C11.1429 15.7995 10.9329 15.9238 10.8232 16.1238C10.7134 16.3239 10.7214 16.5678 10.8439 16.7602L12.1462 18.8048L10.8439 20.8494C10.7214 21.0418 10.7134 21.2858 10.8232 21.4858ZM13.4143 18.469L12.5102 17.0494H14.4032C14.6168 17.0494 14.8156 16.9404 14.9304 16.7602L15.9987 15.0828L17.067 16.7602C17.1818 16.9404 17.3806 17.0495 17.5942 17.0495H19.4872L18.5831 18.4691C18.4526 18.6739 18.4526 18.9357 18.583 19.1406L19.4872 20.5602H17.5942C17.3806 20.5602 17.1818 20.6692 17.067 20.8494L15.9987 22.5268L14.9303 20.8494C14.8156 20.6692 14.6168 20.5602 14.4032 20.5602H12.5101L13.4142 19.1406C13.5447 18.9357 13.5447 18.6739 13.4143 18.469Z" fill="#B5E5FB"/>
</svg>
