<svg width="16" height="16" viewBox="0 0 16 16" fill="none" xmlns="http://www.w3.org/2000/svg">
<path d="M15.5312 7.65307H13.1875C13.1875 7.65307 13.1849 4.94592 13.1808 4.92123C13.1166 3.63926 12.5838 2.44007 11.6641 1.52035C8.51216 -1.66027 3.03906 0.473854 2.81916 4.92126C2.81512 4.94592 2.8125 7.65307 2.8125 7.65307H0.46875C0.209875 7.65307 0 7.86295 0 8.12182V15.5281C0 15.7869 0.209875 15.9968 0.46875 15.9968H15.5312C15.7901 15.9968 16 15.7869 16 15.5281V8.12182C16 7.86295 15.7901 7.65307 15.5312 7.65307ZM12.25 7.34057H11.2812V6.80932C11.2582 6.18804 10.3666 6.18851 10.3438 6.80932V7.34057H9.40625V6.80932C9.38319 6.18804 8.49159 6.18851 8.46875 6.80932V7.34057H7.53125V6.80932C7.50819 6.18804 6.61659 6.18851 6.59375 6.80932V7.34057H5.65625V6.80932C5.63319 6.18804 4.74159 6.18851 4.71875 6.80932V7.34057H3.75V5.46557H12.25V7.34057ZM3.75 8.27807H5.12609C4.84591 8.46638 4.58172 8.68345 4.33731 8.92785C4.11947 9.1457 3.92341 9.37929 3.75 9.62585V8.27807ZM12.25 8.27807V9.61263C11.8856 9.09601 11.4074 8.62904 10.8832 8.27807H12.25ZM8 0.934385C10.1203 0.934385 11.8828 2.49513 12.1993 4.52807H3.80072C4.11719 2.49513 5.87972 0.934385 8 0.934385ZM0.9375 8.59057H2.8125V15.0593H0.9375V8.59057ZM3.75 12.5952C3.92666 7.12642 11.73 6.89579 12.25 12.3179V15.0593H9.62037V12.3047C9.53866 10.1575 6.46059 10.1591 6.37966 12.3047V15.0592H3.75V12.5952ZM8.68287 15.0592H7.31716V12.3047C7.35159 11.3998 8.64875 11.4005 8.68287 12.3047V15.0592ZM15.0625 15.0593H13.1968L13.1875 8.59057H15.0625V15.0593Z" fill="#B5E5FB"/>
<path d="M1.875 9.68359C1.61612 9.68359 1.40625 9.89347 1.40625 10.1523V10.6846C1.42931 11.3059 2.32091 11.3054 2.34375 10.6846V10.1523C2.34375 9.89347 2.13388 9.68359 1.875 9.68359Z" fill="#B5E5FB"/>
<path d="M14.125 11.1543C14.3839 11.1543 14.5938 10.9444 14.5938 10.6855V10.1533C14.5707 9.532 13.6791 9.53247 13.6562 10.1533V10.6855C13.6562 10.9444 13.8661 11.1543 14.125 11.1543Z" fill="#B5E5FB"/>
<path d="M5.05078 12.1836C4.79191 12.1836 4.58203 12.3935 4.58203 12.6523V13.3711C4.60509 13.9924 5.49669 13.9919 5.51953 13.3711V12.6523C5.51953 12.3935 5.30969 12.1836 5.05078 12.1836Z" fill="#B5E5FB"/>
<path d="M10.957 13.8408C11.2159 13.8408 11.4258 13.6309 11.4258 13.372V12.6533C11.4027 12.032 10.5111 12.0325 10.4883 12.6533V13.372C10.4883 13.6309 10.6982 13.8408 10.957 13.8408Z" fill="#B5E5FB"/>
</svg>
