<svg width="24" height="24" viewBox="0 0 24 24" fill="none" xmlns="http://www.w3.org/2000/svg">
<path d="M15.6999 13.2836C18.0317 11.6263 18.9242 8.04251 17.5377 5.43114C17.5324 5.41862 17.5276 5.40595 17.5214 5.39375C15.302 0.868026 8.69708 0.869474 6.47861 5.39375C6.47026 5.41021 6.46338 5.42715 6.45666 5.44412C5.07733 8.05495 5.97287 11.6288 8.30013 13.2835C5.88962 13.5236 4 15.5867 4 18.0882V21.4171C4.02852 22.1946 5.13117 22.194 5.15942 21.4171V18.0882C5.15942 16.6488 5.98597 15.4013 7.18388 14.8058L8.74114 17.8525C8.81186 17.9908 8.93399 18.095 9.0807 18.1421C9.22698 18.1892 9.38636 18.1755 9.52313 18.1037L11.9809 16.8126L14.3127 18.0375C14.4494 18.1094 14.6088 18.123 14.7551 18.0759C14.9018 18.0288 15.0239 17.9246 15.0946 17.7863L16.6562 14.7311C17.9398 15.2921 18.8406 16.5856 18.8406 18.0882V21.4171C18.8691 22.1946 19.9717 22.194 20 21.4171V18.0882C20 15.5867 18.1104 13.5237 15.6999 13.2836ZM12 15.555C11.5082 15.555 11.1082 15.1501 11.1082 14.6525V14.461C11.6883 14.5475 12.3117 14.5475 12.8917 14.461C12.8917 14.5711 12.8918 14.6525 12.8918 14.6525C12.8918 15.1502 12.4917 15.555 12 15.555ZM7.33414 6.32051C7.85295 6.41223 8.37878 6.48834 8.9103 6.54876C8.42118 7.16683 7.74512 7.60107 6.98013 7.78517C7.02636 7.27133 7.14806 6.77924 7.33414 6.32051ZM7.93874 5.23324C7.95146 5.2158 7.9641 5.19827 7.977 5.18099C7.97581 5.18083 7.97469 5.18044 7.97349 5.18024C9.79834 2.60649 13.8333 2.47614 15.8191 4.91926C15.8179 4.91985 15.8168 4.92059 15.8155 4.92114C15.9014 5.02177 15.9833 5.12596 16.0613 5.2332C13.4379 5.65395 10.5622 5.65395 7.93874 5.23324ZM16.6657 6.32051C16.8518 6.77916 16.9737 7.27098 17.02 7.7847C16.2601 7.59998 15.5807 7.1646 15.0906 6.54865C15.6218 6.48822 16.1473 6.41215 16.6657 6.32051ZM7.01032 8.97788C8.36796 8.72578 9.53925 7.88799 10.2293 6.66563C11.399 6.74111 12.6012 6.74111 13.7709 6.66559C13.7733 6.66993 13.7751 6.67439 13.7775 6.67869C14.4674 7.88932 15.6466 8.72519 16.9898 8.97714C16.053 14.7743 7.9457 14.7708 7.01032 8.97788ZM9.50419 16.7917L8.31374 14.4626C8.4635 14.4433 8.61608 14.4334 8.7709 14.4334H9.94875V14.6525C9.94875 15.2662 10.2134 15.8183 10.6332 16.1986L9.50419 16.7917ZM14.3315 16.7255L13.3525 16.2112C13.7804 15.8304 14.0512 15.273 14.0512 14.6524C14.0512 14.5711 14.0512 14.4987 14.0511 14.4333H15.229C15.3194 14.4333 15.409 14.4368 15.4978 14.4435L14.3315 16.7255Z" fill="#B5E5FB"/>
</svg>
