<svg width="24" height="24" viewBox="0 0 24 24" fill="none" xmlns="http://www.w3.org/2000/svg">
<path d="M17.0944 8.56218H13.1883V4.46872C13.1883 4.20986 12.9784 4 12.7195 4H10.8447C10.5858 4 10.376 4.20986 10.376 4.46872V8.56218H6.46986C6.211 8.56218 6.00114 8.77204 6.00114 9.0309V14.2179C5.93583 17.312 8.68801 20.0644 11.7822 19.9989C14.8761 20.0644 17.6288 17.3119 17.5631 14.2179V9.0309C17.5631 8.77204 17.3533 8.56218 17.0944 8.56218ZM16.6257 13.9055C16.5154 16.8042 12.3601 16.802 12.2508 13.9055V9.49962H16.6257V13.9055ZM11.3134 4.93743H12.2508V8.56218H11.3134V4.93743ZM6.93857 9.49962H11.3134V13.9055C11.2031 16.8042 7.04785 16.802 6.93857 13.9055V9.49962ZM11.7821 19.0615C9.98421 19.0615 8.41203 18.0767 7.5764 16.6183C8.99365 17.4695 10.9638 16.9382 11.7821 15.5497C12.6006 16.9384 14.5709 17.4694 15.9879 16.6183C15.1522 18.0767 13.58 19.0615 11.7821 19.0615Z" fill="white"/>
<path d="M8.42184 13.532C7.8006 13.555 7.80107 14.4466 8.42184 14.4694H9.82799C10.0869 14.4694 10.2967 14.2595 10.2967 14.0007V11.6258C10.2967 11.367 10.0869 11.1571 9.82799 11.1571H9.14054C9.00271 11.1571 8.89056 11.045 8.89056 10.9071V10.8759C8.8675 10.2547 7.97597 10.2551 7.95312 10.8759V10.9071C7.95312 11.5619 8.48578 12.0945 9.14054 12.0945H9.35928V13.532H8.42184Z" fill="white"/>
<path d="M13.9406 12.0311H14.753V13.9998C14.7761 14.621 15.6676 14.6205 15.6904 13.9998V11.6399C15.6904 11.5634 15.6718 11.4915 15.6393 11.4277C15.5814 11.2345 15.4025 11.0937 15.1905 11.0937H13.9406C13.8559 11.0937 13.7843 11.0221 13.7843 10.9375C13.7843 10.6786 13.5745 10.4688 13.3156 10.4688C12.3963 10.5527 12.9365 12.0667 13.9406 12.0311Z" fill="white"/>
<path d="M13.6562 12.7969C13.3974 12.7969 13.1875 13.0067 13.1875 13.2656V14.0006C13.2106 14.6218 14.1021 14.6214 14.1249 14.0006V13.2656C14.1249 13.0067 13.9151 12.7969 13.6562 12.7969Z" fill="white"/>
</svg>
