<svg width="31" height="18" viewBox="0 0 31 18" fill="none" xmlns="http://www.w3.org/2000/svg">
<path d="M8.75 16.75V15.4167C8.75 13.6486 9.45238 11.9529 10.7026 10.7026C11.9529 9.45238 13.6486 8.75 15.4167 8.75M15.4167 8.75C17.1848 8.75 18.8805 9.45238 20.1307 10.7026C21.381 11.9529 22.0833 13.6486 22.0833 15.4167V16.75M15.4167 8.75C16.4775 8.75 17.4949 8.32857 18.2451 7.57843C18.9952 6.82828 19.4167 5.81087 19.4167 4.75C19.4167 3.68913 18.9952 2.67172 18.2451 1.92157C17.4949 1.17143 16.4775 0.75 15.4167 0.75C14.3558 0.75 13.3384 1.17143 12.5882 1.92157C11.8381 2.67172 11.4167 3.68913 11.4167 4.75C11.4167 5.81087 11.8381 6.82828 12.5882 7.57843C13.3384 8.32857 14.3558 8.75 15.4167 8.75ZM0.75 16.75V15.4167C0.75 14.3558 1.17143 13.3384 1.92157 12.5882C2.67172 11.8381 3.68913 11.4167 4.75 11.4167M4.75 11.4167C5.45724 11.4167 6.13552 11.1357 6.63562 10.6356C7.13572 10.1355 7.41667 9.45724 7.41667 8.75C7.41667 8.04276 7.13572 7.36448 6.63562 6.86438C6.13552 6.36429 5.45724 6.08333 4.75 6.08333C4.04276 6.08333 3.36448 6.36429 2.86438 6.86438C2.36428 7.36448 2.08333 8.04276 2.08333 8.75C2.08333 9.45724 2.36428 10.1355 2.86438 10.6356C3.36448 11.1357 4.04276 11.4167 4.75 11.4167ZM30.0833 16.75V15.4167C30.0833 14.3558 29.6619 13.3384 28.9118 12.5882C28.1616 11.8381 27.1442 11.4167 26.0833 11.4167M26.0833 11.4167C26.7906 11.4167 27.4689 11.1357 27.969 10.6356C28.469 10.1355 28.75 9.45724 28.75 8.75C28.75 8.04276 28.469 7.36448 27.969 6.86438C27.4689 6.36429 26.7906 6.08333 26.0833 6.08333C25.3761 6.08333 24.6978 6.36429 24.1977 6.86438C23.6976 7.36448 23.4167 8.04276 23.4167 8.75C23.4167 9.45724 23.6976 10.1355 24.1977 10.6356C24.6978 11.1357 25.3761 11.4167 26.0833 11.4167Z" stroke="#B5E5FB" stroke-width="1.5" stroke-linecap="round" stroke-linejoin="round"/>
</svg>
