<svg width="24" height="24" viewBox="0 0 24 24" fill="none" xmlns="http://www.w3.org/2000/svg">
<path d="M19.7013 18.0008V5.99718C20.1794 5.80673 20.0545 5.09971 19.5331 5.09105H18.7635V4.4659C18.7405 3.84447 17.8487 3.84493 17.8258 4.4659V5.09105H17.0562C16.5345 5.09987 16.4102 5.80694 16.8881 5.99718V6.96648H7.11192V5.99718C7.5901 5.80673 7.46513 5.09971 6.94375 5.09105H6.17419V4.4659C6.15112 3.84447 5.25931 3.84493 5.23646 4.4659V5.09105H4.4669C3.94518 5.09987 3.82086 5.80694 4.29873 5.99718V18.0008C3.82055 18.1912 3.94552 18.8982 4.4669 18.9069H5.23646V19.532C5.25953 20.1535 6.15134 20.153 6.17419 19.532V18.9069H6.94375C7.46547 18.8981 7.58978 18.191 7.11192 18.0008V17.0315H16.8881V18.0008C16.4099 18.1912 16.5349 18.8982 17.0562 18.9069H17.8258V19.532C17.8489 20.1535 18.7407 20.153 18.7635 19.532V18.9069H19.5331C20.0548 18.8981 20.1791 18.191 19.7013 18.0008ZM17.8258 17.9692V17.0314H18.7635V17.9692H17.8258ZM18.7635 16.0937H17.8258V7.90424H18.7635V16.0937ZM18.7635 6.02878V6.96651H17.8258V6.02878H18.7635ZM7.11192 7.90424H16.8881V16.0937H7.11192V7.90424ZM5.23649 6.02878H6.17422V6.96651H5.23649V6.02878ZM5.23649 7.90424H6.17044V16.0937H5.23649V7.90424ZM5.23649 17.9692V17.0314H6.17422V17.9692H5.23649Z" fill="#B5E5FB"/>
<path d="M11.0602 9.65234H8.5284C7.90697 9.67541 7.90743 10.5672 8.5284 10.5901H11.0602C11.6816 10.567 11.6811 9.67519 11.0602 9.65234Z" fill="#B5E5FB"/>
<path d="M11.0602 11.5273H8.5284C7.90697 11.5504 7.90743 12.4422 8.5284 12.4651H11.0602C11.6816 12.442 11.6811 11.5502 11.0602 11.5273Z" fill="#B5E5FB"/>
<path d="M11.0602 13.4062H8.5284C7.90697 13.4293 7.90743 14.3211 8.5284 14.344H11.0602C11.6816 14.3209 11.6811 13.4291 11.0602 13.4062Z" fill="#B5E5FB"/>
<path d="M12.9386 10.5901H15.4703C16.0918 10.567 16.0913 9.67519 15.4703 9.65234H12.9386C12.3171 9.67541 12.3176 10.5672 12.9386 10.5901Z" fill="#B5E5FB"/>
<path d="M15.4703 11.5312H12.9386C12.3171 11.5543 12.3176 12.4461 12.9386 12.469H15.4703C16.0918 12.4459 16.0913 11.5541 15.4703 11.5312Z" fill="#B5E5FB"/>
<path d="M15.4703 13.4062H12.9386C12.3171 13.4293 12.3176 14.3211 12.9386 14.344H15.4703C16.0918 14.3209 16.0913 13.4291 15.4703 13.4062Z" fill="#B5E5FB"/>
</svg>
